# xmcd
# 
# Track frame offsets:
#     150
#     15098
#     36644
#     54123
# 
# Disc length: 941
# 
# Revision: 0
# Processed by: cddbd v1.5.2PL0 Copyright (c) Steve Scherf et al.
# Submitted via: fre:ac v1.0.17
# 
DISCID=2303ab04
DTITLE=King Africa - ???
DYEAR=0
DGENRE=Dance
TTITLE0=La Bomba
TTITLE1=King Africa Megamix
TTITLE2=Mama yo Quiero
TTITLE3=Salta
EXTD=
EXTT0=
EXTT1=
EXTT2=
EXTT3=
PLAYORDER=
